<?xml version="1.0" encoding="utf-8"?>
<!-- Generator: Adobe Illustrator 21.0.0, SVG Export Plug-In . SVG Version: 6.00 Build 0)  -->
<svg version="1.1" id="Layer_1" xmlns="http://www.w3.org/2000/svg" xmlns:xlink="http://www.w3.org/1999/xlink" x="0px" y="0px"
	 width="482.5px" height="94px" viewBox="0 0 482.5 94" style="enable-background:new 0 0 482.5 94;" xml:space="preserve">
<style type="text/css">
	.st0{fill:#3B97D2;}
</style>
<g>
	<path class="st0" d="M49.2,92.7C23.9,92.7,3.4,72.1,3.4,47c0-25,20.7-45.7,45.7-45.7S94.9,21.4,94.9,47S73.8,92.8,49.2,92.7z
		 M49.4,87.2c22,0.1,40.1-17.7,40.1-40.1c0-22.7-17.9-40.4-40.4-40.4C26.7,6.8,8.9,24.7,8.9,47.1C8.7,69.4,27.3,87.6,49.4,87.2z"/>
	<path class="st0" d="M427.9,67.7c0.1-0.4,0.4-1,0.5-1.4c4.2-12.6,8.3-25.1,12.5-37.8c0.7-1.9,1.1-2.3,3.1-2.3
		c2.2,0,2.7,0.3,3.4,2.3c4.1,12.5,8.3,25.1,12.4,37.6c0.1,0.5,0.4,1,0.8,1.5c0.3-0.5,0.5-1.1,0.7-1.8c3.8-12,7.5-23.9,11.3-35.9
		c0.3-1.1,0.7-2.2,1.1-3.3c0.3-1,0.8-1.5,1.8-1.5c1.2,0,2.6-0.4,3.4,0.7c0.4,0.5,0.3,1.6,0.1,2.3c-1.5,4.8-3,9.4-4.5,14.1
		c-3.5,11-6.9,21.9-10.5,32.9c-0.8,2.6-2.3,3.3-4.9,2.6c-1.1-0.3-1.5-1.1-1.8-2c-3.1-9.8-6.4-19.6-9.6-29.4c-1-3-1.9-5.8-2.9-8.8
		c-0.1-0.4-0.3-0.8-0.5-1.2c-0.1,0-0.3,0-0.4,0c-0.3,0.5-0.5,1-0.7,1.5c-4.1,12.5-8.3,25-12.4,37.5c-0.8,2.4-2.4,3.4-4.9,2.4
		c-0.7-0.3-1.4-1-1.5-1.6c-2.7-8.4-5.4-17-8.2-25.6c-1.8-5.6-3.5-11.1-5.3-16.9c-0.7-1.9-1.2-3.9-1.9-5.8c-0.5-1.8,0.1-2.7,2-2.7
		c2.6,0,3,0.1,3.7,2.6c3.9,12.6,7.9,25.4,12,38.1c0.1,0.5,0.4,1.2,0.7,1.8C427.6,67.7,427.7,67.7,427.9,67.7z"/>
	<path class="st0" d="M258.1,54.5c-5.3,0-10.5,0-15.8,0c-1.1,0-1.6,0.3-1.6,1.5c0.3,2.4,0,5.2,0.5,7.5c1.5,6,6,8.7,11.7,9.5
		c6.9,1.1,12.9-1.2,18.1-5.7c0.7-0.7,1.6-1.2,2.4-0.5c1,0.8,1.5,1.9,2.2,3c0.1,0.1-0.3,0.7-0.5,1c-8.2,7.9-20.5,10.6-30.3,5.2
		c-5.8-3.3-9.1-8.4-9.4-15.1c-0.1-6-0.1-12,0-17.9c0.3-7.2,3.4-12.8,9.8-16.2c6.4-3.3,13.2-3.5,19.8-0.8c7.9,3.1,11.4,9.5,11.7,17.8
		c0,2.4,0,5,0,7.5c0,2.9-0.5,3.4-3.5,3.4C268.3,54.5,263.1,54.5,258.1,54.5z M255.7,49.3c4.5,0,9,0,13.5,0c1,0,1.5-0.3,1.4-1.4
		c-0.1-1.6,0-3.3,0-4.9c-0.1-6.4-3.4-11-9-12.8c-3-1-6-1.1-9.1-0.7c-6.1,0.8-10.2,4.5-11.3,10.5c-0.4,2.4-0.3,5-0.4,7.6
		c-0.1,1.1,0.3,1.5,1.5,1.5C246.8,49.2,251.3,49.3,255.7,49.3z"/>
	<path class="st0" d="M177.3,77.9c-3.1,0-6.3,0.1-9.2,0c-6.7-0.3-12.6-6-13.7-12.9c-0.1-1.2-0.3-2.3-0.3-3.5c0-4.6,0-9.2,0.1-13.9
		c0.3-5,2.3-9.5,4.8-13.9c2.3-4.1,5-7.9,8.6-11c2.2-1.9,4.5-3.7,7.5-4.2c2.4-0.4,3.7,0.5,3.7,3c0,3.7,0,7.2,0,10.9
		c0,1,0.3,1.2,1.2,1.2c1.8,0,3.5-0.1,5.3,0c7.2,0.5,12.5,6.5,13.3,13.3c0.4,3.9,0.3,8,0.3,12c0,3.3,0.1,6.4-1.2,9.5
		c-2.2,4.9-5.7,8.3-11,9.2c-2.2,0.4-4.5,0.1-6.7,0.1C179.2,78,178.2,78,177.3,77.9L177.3,77.9z M174.5,23.9c-1.2,0.5-2.3,0.8-3,1.5
		c-1.5,1.2-3,2.7-4.2,4.2c-3.9,4.8-6.9,10.2-8.2,16.3c-1.2,6-0.7,12.1-0.3,18.1c0.4,5.4,4.8,9.4,10.3,9.4c5.2,0,10.3,0,15.6,0
		c0.7,0,1.4,0,2-0.1c4.6-1,8-5,8.2-10.1c0.1-4.2,0-8.4,0-12.5c0-1.2,0-2.4-0.3-3.7c-1.1-5-4.9-9.1-10.6-8.8c-2.2,0.1-4.3,0-6.5,0
		c-1.9,0-2.7-0.8-2.7-2.7c0-3.1,0-6.4,0-9.5C174.7,25.4,174.5,24.8,174.5,23.9z"/>
	<path class="st0" d="M381.5,26.3c3.3,0,6.5-0.1,9.6,0c6.7,0.4,12.1,6.3,13,12.6c0.1,1.1,0.3,2,0.3,3.1c0,3.7,0,7.5,0,11.1
		c0.1,6.5-2,12.4-5.3,17.8c-2.2,3.7-4.6,7.2-7.7,10.1c-2.3,2.2-4.9,3.9-8.2,4.5c-2,0.4-3.4-0.7-3.4-2.9c0-3.8,0-7.6,0-11.4
		c0-1-0.3-1.5-1.4-1.4c-1.4,0.1-2.6,0-3.9,0c-8,0.1-14.3-6.3-14.8-13.7c-0.4-5.4-0.3-11,0-16.4c0.3-6.4,5.8-12.4,12-13.6
		c1-0.1,2-0.1,3-0.1C377,26.2,379.4,26.2,381.5,26.3L381.5,26.3z M384.1,79.8c1.9,0.3,3-1,4.2-1.9c4.1-3.7,6.9-8,9.2-13
		c1.8-3.8,2.9-7.9,2.7-12.1c-0.1-3.5,0-7.1,0-10.6c0-1.1-0.1-2-0.3-3.1c-1-5.3-5-8.7-10.5-8.7c-4.9,0-9.9,0-14.8,0
		c-5.4,0-10.2,4.1-10.6,9.4c-0.3,5.6-0.4,11.1,0,16.7c0.3,5,4.9,9.8,10.7,9.5c2.2-0.1,4.5,0,6.7,0c1.9,0,2.6,0.7,2.6,2.6
		c0,3.3,0,6.4,0,9.6C384.1,78.8,384.1,79.2,384.1,79.8z"/>
	<path class="st0" d="M309.4,52.8c0-7.3,0-14.8,0-22.2c0-1.5,0.5-2.4,1.9-3.1c8.3-3.4,16.7-4.8,25.4-2.6c7.2,1.8,12.2,7.3,13.3,14.7
		c0.3,2,0.4,4.2,0.5,6.4c0,9.5,0,19.2,0,28.7c0,2.3-0.7,3.1-2.4,3.1c-2.2,0-3.3-1-3.3-3.1c0-10.1,0-20.1,0-30c0-3.5-0.7-6.9-3-9.9
		c-2.3-3-5.4-4.2-9-4.9c-6-1-11.8,0.1-17.5,1.8c-1.1,0.3-1,1.1-1,1.8c0,12.8,0,25.6,0,38.3c0,1.4,0,2.6,0,3.9c0,1.2-0.3,2-1.6,2.3
		c-1.6,0.3-3-0.4-3.4-1.6c-0.1-0.5-0.1-1.1-0.1-1.5C309.4,67.4,309.4,60,309.4,52.8z"/>
	<path class="st0" d="M143.8,50c0,7.3,0,14.7,0,22c0,2-0.3,2.3-2.2,3.3c-6.3,2.7-12.9,3.8-19.7,3.3c-6.4-0.5-11.7-2.9-15.4-8.4
		c-1.9-3-3-6.4-3.1-9.9c-0.1-11-0.1-22-0.1-33c0-1.4,0.7-1.9,2-2c0.4,0,0.8,0,1.2,0c1.8,0,2.6,0.8,2.6,2.7c0,10.1,0,20,0,30
		c0,3,0.4,6,1.9,8.7c2.2,4.1,5.8,5.8,10.3,6.5c5.4,0.7,10.6-0.3,15.8-1.8c1.1-0.3,1.5-0.8,1.5-2c0-13.7,0-27.5,0-41.2
		c0-2.4,0.5-3,3-2.9c1.6,0.1,2.2,0.7,2.2,2.3C143.8,35,143.8,42.5,143.8,50z"/>
	<path class="st0" d="M207.4,38.8c0-7.7,0-15.6,0-23.4c0-2.3,0.8-3,3-3c2.3,0,3.1,0.8,3.1,3.1c0,2.9,0,5.6,0,8.4
		c0,1.1,0.4,1.4,1.5,1.4c4.2,0,8.4,0,12.5,0c2.9,0,3.1,1.8,2.6,3.9c-0.3,1-1.1,1.2-2,1.2c-4.2,0-8.6,0-12.8,0
		c-1.2,0-1.8,0.3-1.8,1.6c0,9.8,0,19.6,0.1,29.4c0,2.2,0.4,4.5,1.2,6.5c1.5,3.9,5.2,5,9,5.2c1.8,0,3.7-0.1,5.4-0.3
		c1.6,0,2.6,0.5,2.7,1.9c0.3,1.9-0.4,3.1-2,3.3c-2.2,0.3-4.5,0.4-6.8,0.4c-3.3-0.1-6.4-0.7-9.1-2.7c-3.8-2.7-5.8-6.5-6.4-11
		c-0.3-2.2-0.3-4.3-0.3-6.5C207.4,51.8,207.4,45.2,207.4,38.8z"/>
	<path class="st0" d="M41.3,46.9c0.1-1.9,2-3.9,3.8-3.8c0.4,0,1,0.3,1.2,0.7c4.8,3.9,9.5,7.7,14.3,11.8c5,4.3,9.9,8.8,14.8,13.3
		c0.4,0.4,0.8,1,1.1,1.4c0.1,0.3,0.1,0.8,0.3,1.1c-0.4,0-1,0.1-1.4,0c-1.8-1-3.5-1.8-5.2-3c-9.2-6.5-18.5-13-27.6-19.6
		C42.2,48.4,41.9,47.5,41.3,46.9z"/>
</g>
</svg>
