<svg xmlns="http://www.w3.org/2000/svg" width="137" height="55.769" viewBox="0 0 137 55.769"><g transform="translate(-103 -233)"><g transform="translate(103 233)"><g transform="translate(0)"><path d="M817.6,4136.075a10.329,10.329,0,0,0,1.228-4.833v-.515a8.377,8.377,0,0,0-2.931-6.734c-1.941-1.623-4.674-2.436-8.16-2.436H795.719v5.584h12.023a4.95,4.95,0,0,1,3.328,1.011,3.629,3.629,0,0,1,1.169,2.952,3.854,3.854,0,0,1-1.169,3.029,4.759,4.759,0,0,1-3.328,1.05h-5.13v-5.645h-6.893v18.6h6.893v-7.368h5.308l3.862,7.368h7.784l-5.526-8.715A8.217,8.217,0,0,0,817.6,4136.075Zm-40.642,12.062h6.912v-18.6h-6.912ZM769,4127.28h22.837v-5.723H769Zm109.727-8.576H906V4113H878.727Zm20.341,16.637a6.721,6.721,0,1,1-7.17-7.189A6.765,6.765,0,0,1,899.068,4135.341Zm6.219.713h0a.681.681,0,0,1-.693-.713c0-.158.02-.315.02-.475s-.02-.337-.02-.5a.687.687,0,0,1,.693-.733.689.689,0,0,0,.693-.694v-.118a13.638,13.638,0,0,0-2.575-6.179.7.7,0,0,0-1.05-.08.711.711,0,0,1-.495.218.7.7,0,0,1-.515-.237q-.327-.357-.713-.713a.647.647,0,0,1-.02-.951l.02-.02a.721.721,0,0,0-.079-1.069,13.8,13.8,0,0,0-6.18-2.536.679.679,0,0,0-.792.674.694.694,0,0,1-.713.693h-.99a.7.7,0,0,1-.733-.693.7.7,0,0,0-.693-.693.255.255,0,0,0-.119.02,13.512,13.512,0,0,0-6.16,2.536.694.694,0,0,0-.079,1.069.676.676,0,0,1,.2.476.722.722,0,0,1-.218.515c-.257.237-.475.455-.693.693a.7.7,0,0,1-1.01.039v-.02a.7.7,0,0,0-1.05.08,13.636,13.636,0,0,0-2.575,6.179.689.689,0,0,0,.693.812.7.7,0,0,1,.693.693v.04a4.133,4.133,0,0,0-.02.5v.475a.67.67,0,0,1-.693.713h0a.72.72,0,0,0-.693.812,13.711,13.711,0,0,0,2.575,6.2.7.7,0,0,0,1.05.079.674.674,0,0,1,.99,0,8.11,8.11,0,0,0,.713.733.692.692,0,0,1,.02.989h-.02a.7.7,0,0,0,.079,1.051,13.714,13.714,0,0,0,6.2,2.575.7.7,0,0,0,.812-.692.694.694,0,0,1,.713-.694h.02c.159,0,.317.02.475.02.178,0,.337-.02.5-.02a.7.7,0,0,1,.733.694.689.689,0,0,0,.693.692h.1a13.623,13.623,0,0,0,6.2-2.575.7.7,0,0,0,.079-1.051.682.682,0,0,1-.2-.493.753.753,0,0,1,.218-.516c.238-.218.475-.456.693-.693a.7.7,0,0,1,1.01-.021.684.684,0,0,0,.5.2.723.723,0,0,0,.555-.277,13.472,13.472,0,0,0,2.555-6.2A.709.709,0,0,0,905.287,4136.054Zm-83.4-17.35h27.273V4113H821.883Zm20.341,16.637a6.721,6.721,0,1,1-7.17-7.189A6.747,6.747,0,0,1,842.224,4135.341Zm6.239.713h-.02a.693.693,0,0,1-.693-.713,3.814,3.814,0,0,0,.02-.475,4.158,4.158,0,0,0-.02-.5.687.687,0,0,1,.693-.733.707.707,0,0,0,.713-.694c0-.039-.02-.078-.02-.118a13.636,13.636,0,0,0-2.575-6.179.7.7,0,0,0-1.05-.08.711.711,0,0,1-.5.218.7.7,0,0,1-.515-.237q-.327-.357-.713-.713a.648.648,0,0,1-.02-.951l.02-.02a.721.721,0,0,0-.079-1.069,13.821,13.821,0,0,0-6.16-2.536.687.687,0,0,0-.812.674.694.694,0,0,1-.713.693h-.99a.7.7,0,0,1-.733-.693.7.7,0,0,0-.693-.693.15.15,0,0,0-.1.02,13.587,13.587,0,0,0-6.18,2.536.722.722,0,0,0-.079,1.069.675.675,0,0,1,.2.476.722.722,0,0,1-.218.515c-.238.237-.475.455-.693.693a.7.7,0,0,1-1.01.039v-.02a.7.7,0,0,0-1.05.08,13.639,13.639,0,0,0-2.575,6.179.7.7,0,0,0,.693.812.7.7,0,0,1,.693.693v.04a4.133,4.133,0,0,0-.02.5,3.791,3.791,0,0,0,.02.475.693.693,0,0,1-.693.713h-.02a.72.72,0,0,0-.693.812,13.711,13.711,0,0,0,2.575,6.2.7.7,0,0,0,1.05.079.674.674,0,0,1,.99,0c.238.258.475.5.713.733a.676.676,0,0,1,.02.989h0a.7.7,0,0,0,.06,1.051,13.7,13.7,0,0,0,6.219,2.575.693.693,0,0,0,.792-.692.694.694,0,0,1,.713-.694h.02c.158,0,.317.02.475.02.178,0,.337-.02.5-.02a.7.7,0,0,1,.733.694.689.689,0,0,0,.693.692h.119a13.639,13.639,0,0,0,6.18-2.575.7.7,0,0,0,.079-1.051.683.683,0,0,1-.2-.493.753.753,0,0,1,.218-.516c.238-.218.475-.456.693-.693a.7.7,0,0,1,1.01-.021.683.683,0,0,0,.5.2.694.694,0,0,0,.555-.277,13.713,13.713,0,0,0,2.575-6.2A.72.72,0,0,0,848.463,4136.054Zm24.421-12.082c-1.842-1.6-4.5-2.416-7.942-2.416H853.256v5.584h11.369a5.084,5.084,0,0,1,3.387,1.011,3.692,3.692,0,0,1,1.169,2.952,3.922,3.922,0,0,1-1.169,3.029,4.886,4.886,0,0,1-3.387,1.05h-4.456v-5.645h-6.912v18.6h6.912v-7.368h4.773c3.407,0,6.061-.873,7.923-2.615a9.389,9.389,0,0,0,2.812-7.289A8.659,8.659,0,0,0,872.884,4123.973Z" transform="translate(-769 -4113)" fill="#361ea0"/></g></g><text transform="translate(172 285.769)" fill="#444" font-size="11" font-family="Helvetica"><tspan x="-50.445" y="0">Vehicle Life Simlifide</tspan></text></g></svg>